<mxfile host="app.diagrams.net" modified="2023-11-26T21:07:46.867Z" agent="Mozilla/5.0 (Windows NT 10.0; Win64; x64) AppleWebKit/537.36 (KHTML, like Gecko) Chrome/119.0.0.0 Safari/537.36" etag="Uhrwxix9EUwtg07UxIGJ" version="21.8.2" type="device">
  <diagram name="Page-1" id="hRAmb2pnf1oaEoGiOSdD">
    <mxGraphModel dx="1509" dy="823" grid="1" gridSize="10" guides="1" tooltips="1" connect="1" arrows="1" fold="1" page="1" pageScale="1" pageWidth="850" pageHeight="1100" math="0" shadow="0">
      <root>
        <mxCell id="0" />
        <mxCell id="1" parent="0" />
        <mxCell id="RBBDxC4-JnGGqZw2nR3C-36" style="edgeStyle=orthogonalEdgeStyle;rounded=0;orthogonalLoop=1;jettySize=auto;html=1;exitX=0.5;exitY=1;exitDx=0;exitDy=0;entryX=0.5;entryY=0;entryDx=0;entryDy=0;endArrow=none;endFill=0;" edge="1" parent="1" source="RBBDxC4-JnGGqZw2nR3C-1" target="RBBDxC4-JnGGqZw2nR3C-18">
          <mxGeometry relative="1" as="geometry" />
        </mxCell>
        <mxCell id="RBBDxC4-JnGGqZw2nR3C-1" value="Element" style="rounded=0;whiteSpace=wrap;html=1;" vertex="1" parent="1">
          <mxGeometry x="360" y="80" width="120" height="40" as="geometry" />
        </mxCell>
        <mxCell id="RBBDxC4-JnGGqZw2nR3C-37" style="edgeStyle=orthogonalEdgeStyle;rounded=0;orthogonalLoop=1;jettySize=auto;html=1;exitX=0;exitY=0.5;exitDx=0;exitDy=0;entryX=1;entryY=0.25;entryDx=0;entryDy=0;endArrow=none;endFill=0;" edge="1" parent="1" source="RBBDxC4-JnGGqZw2nR3C-3" target="RBBDxC4-JnGGqZw2nR3C-18">
          <mxGeometry relative="1" as="geometry">
            <Array as="points">
              <mxPoint x="600" y="100" />
              <mxPoint x="600" y="570" />
            </Array>
          </mxGeometry>
        </mxCell>
        <mxCell id="RBBDxC4-JnGGqZw2nR3C-3" value="Weapon" style="rounded=0;whiteSpace=wrap;html=1;" vertex="1" parent="1">
          <mxGeometry x="720" y="80" width="120" height="40" as="geometry" />
        </mxCell>
        <mxCell id="RBBDxC4-JnGGqZw2nR3C-8" style="edgeStyle=orthogonalEdgeStyle;rounded=0;orthogonalLoop=1;jettySize=auto;html=1;exitX=1;exitY=0.5;exitDx=0;exitDy=0;entryX=0;entryY=0.5;entryDx=0;entryDy=0;endArrow=none;endFill=0;" edge="1" parent="1" source="RBBDxC4-JnGGqZw2nR3C-4" target="RBBDxC4-JnGGqZw2nR3C-1">
          <mxGeometry relative="1" as="geometry" />
        </mxCell>
        <mxCell id="RBBDxC4-JnGGqZw2nR3C-4" value="idElement" style="ellipse;whiteSpace=wrap;html=1;align=center;fontStyle=4;" vertex="1" parent="1">
          <mxGeometry width="120" height="40" as="geometry" />
        </mxCell>
        <mxCell id="RBBDxC4-JnGGqZw2nR3C-9" style="edgeStyle=orthogonalEdgeStyle;rounded=0;orthogonalLoop=1;jettySize=auto;html=1;exitX=1;exitY=0.5;exitDx=0;exitDy=0;entryX=0;entryY=0.5;entryDx=0;entryDy=0;endArrow=none;endFill=0;" edge="1" parent="1" source="RBBDxC4-JnGGqZw2nR3C-5" target="RBBDxC4-JnGGqZw2nR3C-1">
          <mxGeometry relative="1" as="geometry" />
        </mxCell>
        <mxCell id="RBBDxC4-JnGGqZw2nR3C-5" value="name" style="ellipse;whiteSpace=wrap;html=1;align=center;" vertex="1" parent="1">
          <mxGeometry y="80" width="120" height="40" as="geometry" />
        </mxCell>
        <mxCell id="RBBDxC4-JnGGqZw2nR3C-10" style="edgeStyle=orthogonalEdgeStyle;rounded=0;orthogonalLoop=1;jettySize=auto;html=1;exitX=1;exitY=0.5;exitDx=0;exitDy=0;entryX=0;entryY=0.5;entryDx=0;entryDy=0;endArrow=none;endFill=0;" edge="1" parent="1" source="RBBDxC4-JnGGqZw2nR3C-7" target="RBBDxC4-JnGGqZw2nR3C-1">
          <mxGeometry relative="1" as="geometry" />
        </mxCell>
        <mxCell id="RBBDxC4-JnGGqZw2nR3C-7" value="isDeleted" style="ellipse;whiteSpace=wrap;html=1;align=center;" vertex="1" parent="1">
          <mxGeometry y="160" width="120" height="40" as="geometry" />
        </mxCell>
        <mxCell id="RBBDxC4-JnGGqZw2nR3C-14" style="edgeStyle=orthogonalEdgeStyle;rounded=0;orthogonalLoop=1;jettySize=auto;html=1;exitX=0;exitY=0.5;exitDx=0;exitDy=0;entryX=1;entryY=0.5;entryDx=0;entryDy=0;endArrow=none;endFill=0;" edge="1" parent="1" source="RBBDxC4-JnGGqZw2nR3C-11" target="RBBDxC4-JnGGqZw2nR3C-3">
          <mxGeometry relative="1" as="geometry" />
        </mxCell>
        <mxCell id="RBBDxC4-JnGGqZw2nR3C-11" value="idWeapon" style="ellipse;whiteSpace=wrap;html=1;align=center;fontStyle=4;" vertex="1" parent="1">
          <mxGeometry x="1080" width="120" height="40" as="geometry" />
        </mxCell>
        <mxCell id="RBBDxC4-JnGGqZw2nR3C-15" style="edgeStyle=orthogonalEdgeStyle;rounded=0;orthogonalLoop=1;jettySize=auto;html=1;exitX=0;exitY=0.5;exitDx=0;exitDy=0;entryX=1;entryY=0.5;entryDx=0;entryDy=0;endArrow=none;endFill=0;" edge="1" parent="1" source="RBBDxC4-JnGGqZw2nR3C-12" target="RBBDxC4-JnGGqZw2nR3C-3">
          <mxGeometry relative="1" as="geometry" />
        </mxCell>
        <mxCell id="RBBDxC4-JnGGqZw2nR3C-12" value="name" style="ellipse;whiteSpace=wrap;html=1;align=center;" vertex="1" parent="1">
          <mxGeometry x="1080" y="80" width="120" height="40" as="geometry" />
        </mxCell>
        <mxCell id="RBBDxC4-JnGGqZw2nR3C-16" style="edgeStyle=orthogonalEdgeStyle;rounded=0;orthogonalLoop=1;jettySize=auto;html=1;exitX=0;exitY=0.5;exitDx=0;exitDy=0;entryX=1;entryY=0.5;entryDx=0;entryDy=0;endArrow=none;endFill=0;" edge="1" parent="1" source="RBBDxC4-JnGGqZw2nR3C-13" target="RBBDxC4-JnGGqZw2nR3C-3">
          <mxGeometry relative="1" as="geometry" />
        </mxCell>
        <mxCell id="RBBDxC4-JnGGqZw2nR3C-13" value="isDeleted" style="ellipse;whiteSpace=wrap;html=1;align=center;" vertex="1" parent="1">
          <mxGeometry x="1080" y="160" width="120" height="40" as="geometry" />
        </mxCell>
        <mxCell id="RBBDxC4-JnGGqZw2nR3C-84" style="edgeStyle=orthogonalEdgeStyle;rounded=0;orthogonalLoop=1;jettySize=auto;html=1;exitX=1;exitY=0.75;exitDx=0;exitDy=0;entryX=0;entryY=0.5;entryDx=0;entryDy=0;endArrow=none;endFill=0;" edge="1" parent="1" source="RBBDxC4-JnGGqZw2nR3C-18" target="RBBDxC4-JnGGqZw2nR3C-60">
          <mxGeometry relative="1" as="geometry" />
        </mxCell>
        <mxCell id="RBBDxC4-JnGGqZw2nR3C-88" style="edgeStyle=orthogonalEdgeStyle;rounded=0;orthogonalLoop=1;jettySize=auto;html=1;exitX=0.5;exitY=1;exitDx=0;exitDy=0;entryX=0.5;entryY=0;entryDx=0;entryDy=0;endArrow=none;endFill=0;" edge="1" parent="1" source="RBBDxC4-JnGGqZw2nR3C-18" target="RBBDxC4-JnGGqZw2nR3C-52">
          <mxGeometry relative="1" as="geometry" />
        </mxCell>
        <mxCell id="RBBDxC4-JnGGqZw2nR3C-18" value="Character" style="rounded=0;whiteSpace=wrap;html=1;" vertex="1" parent="1">
          <mxGeometry x="360" y="560" width="120" height="40" as="geometry" />
        </mxCell>
        <mxCell id="RBBDxC4-JnGGqZw2nR3C-29" style="edgeStyle=orthogonalEdgeStyle;rounded=0;orthogonalLoop=1;jettySize=auto;html=1;exitX=1;exitY=0.5;exitDx=0;exitDy=0;entryX=0;entryY=0.5;entryDx=0;entryDy=0;endArrow=none;endFill=0;" edge="1" parent="1" source="RBBDxC4-JnGGqZw2nR3C-19" target="RBBDxC4-JnGGqZw2nR3C-18">
          <mxGeometry relative="1" as="geometry" />
        </mxCell>
        <mxCell id="RBBDxC4-JnGGqZw2nR3C-19" value="idCharacter" style="ellipse;whiteSpace=wrap;html=1;align=center;fontStyle=4;" vertex="1" parent="1">
          <mxGeometry y="320" width="120" height="40" as="geometry" />
        </mxCell>
        <mxCell id="RBBDxC4-JnGGqZw2nR3C-30" style="edgeStyle=orthogonalEdgeStyle;rounded=0;orthogonalLoop=1;jettySize=auto;html=1;exitX=1;exitY=0.5;exitDx=0;exitDy=0;entryX=0;entryY=0.5;entryDx=0;entryDy=0;endArrow=none;endFill=0;" edge="1" parent="1" source="RBBDxC4-JnGGqZw2nR3C-20" target="RBBDxC4-JnGGqZw2nR3C-18">
          <mxGeometry relative="1" as="geometry" />
        </mxCell>
        <mxCell id="RBBDxC4-JnGGqZw2nR3C-20" value="name" style="ellipse;whiteSpace=wrap;html=1;align=center;" vertex="1" parent="1">
          <mxGeometry y="400" width="120" height="40" as="geometry" />
        </mxCell>
        <mxCell id="RBBDxC4-JnGGqZw2nR3C-31" style="edgeStyle=orthogonalEdgeStyle;rounded=0;orthogonalLoop=1;jettySize=auto;html=1;exitX=1;exitY=0.5;exitDx=0;exitDy=0;entryX=0;entryY=0.5;entryDx=0;entryDy=0;endArrow=none;endFill=0;" edge="1" parent="1" source="RBBDxC4-JnGGqZw2nR3C-21" target="RBBDxC4-JnGGqZw2nR3C-18">
          <mxGeometry relative="1" as="geometry" />
        </mxCell>
        <mxCell id="RBBDxC4-JnGGqZw2nR3C-21" value="rarity" style="ellipse;whiteSpace=wrap;html=1;align=center;" vertex="1" parent="1">
          <mxGeometry y="480" width="120" height="40" as="geometry" />
        </mxCell>
        <mxCell id="RBBDxC4-JnGGqZw2nR3C-32" style="edgeStyle=orthogonalEdgeStyle;rounded=0;orthogonalLoop=1;jettySize=auto;html=1;exitX=1;exitY=0.5;exitDx=0;exitDy=0;entryX=0;entryY=0.5;entryDx=0;entryDy=0;endArrow=none;endFill=0;" edge="1" parent="1" source="RBBDxC4-JnGGqZw2nR3C-24" target="RBBDxC4-JnGGqZw2nR3C-18">
          <mxGeometry relative="1" as="geometry" />
        </mxCell>
        <mxCell id="RBBDxC4-JnGGqZw2nR3C-24" value="&lt;span style=&quot;border-bottom: 1px dotted&quot;&gt;idElement&lt;br&gt;&lt;/span&gt;" style="ellipse;whiteSpace=wrap;html=1;align=center;" vertex="1" parent="1">
          <mxGeometry y="560" width="120" height="40" as="geometry" />
        </mxCell>
        <mxCell id="RBBDxC4-JnGGqZw2nR3C-33" style="edgeStyle=orthogonalEdgeStyle;rounded=0;orthogonalLoop=1;jettySize=auto;html=1;exitX=1;exitY=0.5;exitDx=0;exitDy=0;entryX=0;entryY=0.5;entryDx=0;entryDy=0;endArrow=none;endFill=0;" edge="1" parent="1" source="RBBDxC4-JnGGqZw2nR3C-26" target="RBBDxC4-JnGGqZw2nR3C-18">
          <mxGeometry relative="1" as="geometry" />
        </mxCell>
        <mxCell id="RBBDxC4-JnGGqZw2nR3C-26" value="&lt;span style=&quot;border-bottom: 1px dotted&quot;&gt;idWeapon&lt;br&gt;&lt;/span&gt;" style="ellipse;whiteSpace=wrap;html=1;align=center;" vertex="1" parent="1">
          <mxGeometry y="640" width="120" height="40" as="geometry" />
        </mxCell>
        <mxCell id="RBBDxC4-JnGGqZw2nR3C-34" style="edgeStyle=orthogonalEdgeStyle;rounded=0;orthogonalLoop=1;jettySize=auto;html=1;exitX=1;exitY=0.5;exitDx=0;exitDy=0;entryX=0;entryY=0.5;entryDx=0;entryDy=0;endArrow=none;endFill=0;" edge="1" parent="1" source="RBBDxC4-JnGGqZw2nR3C-27" target="RBBDxC4-JnGGqZw2nR3C-18">
          <mxGeometry relative="1" as="geometry" />
        </mxCell>
        <mxCell id="RBBDxC4-JnGGqZw2nR3C-27" value="isOwned" style="ellipse;whiteSpace=wrap;html=1;align=center;" vertex="1" parent="1">
          <mxGeometry y="720" width="120" height="40" as="geometry" />
        </mxCell>
        <mxCell id="RBBDxC4-JnGGqZw2nR3C-35" style="edgeStyle=orthogonalEdgeStyle;rounded=0;orthogonalLoop=1;jettySize=auto;html=1;exitX=1;exitY=0.5;exitDx=0;exitDy=0;entryX=0;entryY=0.5;entryDx=0;entryDy=0;endArrow=none;endFill=0;" edge="1" parent="1" source="RBBDxC4-JnGGqZw2nR3C-28" target="RBBDxC4-JnGGqZw2nR3C-18">
          <mxGeometry relative="1" as="geometry" />
        </mxCell>
        <mxCell id="RBBDxC4-JnGGqZw2nR3C-28" value="isDeleted" style="ellipse;whiteSpace=wrap;html=1;align=center;" vertex="1" parent="1">
          <mxGeometry y="800" width="120" height="40" as="geometry" />
        </mxCell>
        <mxCell id="RBBDxC4-JnGGqZw2nR3C-38" value="Stat" style="rounded=0;whiteSpace=wrap;html=1;" vertex="1" parent="1">
          <mxGeometry x="360" y="1360" width="120" height="40" as="geometry" />
        </mxCell>
        <mxCell id="RBBDxC4-JnGGqZw2nR3C-42" style="edgeStyle=orthogonalEdgeStyle;rounded=0;orthogonalLoop=1;jettySize=auto;html=1;exitX=1;exitY=0.5;exitDx=0;exitDy=0;entryX=0;entryY=0.5;entryDx=0;entryDy=0;endArrow=none;endFill=0;" edge="1" parent="1" source="RBBDxC4-JnGGqZw2nR3C-39" target="RBBDxC4-JnGGqZw2nR3C-38">
          <mxGeometry relative="1" as="geometry" />
        </mxCell>
        <mxCell id="RBBDxC4-JnGGqZw2nR3C-39" value="idStat" style="ellipse;whiteSpace=wrap;html=1;align=center;fontStyle=4;" vertex="1" parent="1">
          <mxGeometry y="1280" width="120" height="40" as="geometry" />
        </mxCell>
        <mxCell id="RBBDxC4-JnGGqZw2nR3C-43" style="edgeStyle=orthogonalEdgeStyle;rounded=0;orthogonalLoop=1;jettySize=auto;html=1;exitX=1;exitY=0.5;exitDx=0;exitDy=0;entryX=0;entryY=0.5;entryDx=0;entryDy=0;endArrow=none;endFill=0;" edge="1" parent="1" source="RBBDxC4-JnGGqZw2nR3C-40" target="RBBDxC4-JnGGqZw2nR3C-38">
          <mxGeometry relative="1" as="geometry" />
        </mxCell>
        <mxCell id="RBBDxC4-JnGGqZw2nR3C-40" value="name" style="ellipse;whiteSpace=wrap;html=1;align=center;" vertex="1" parent="1">
          <mxGeometry y="1360" width="120" height="40" as="geometry" />
        </mxCell>
        <mxCell id="RBBDxC4-JnGGqZw2nR3C-44" style="edgeStyle=orthogonalEdgeStyle;rounded=0;orthogonalLoop=1;jettySize=auto;html=1;exitX=1;exitY=0.5;exitDx=0;exitDy=0;entryX=0;entryY=0.5;entryDx=0;entryDy=0;endArrow=none;endFill=0;" edge="1" parent="1" source="RBBDxC4-JnGGqZw2nR3C-41" target="RBBDxC4-JnGGqZw2nR3C-38">
          <mxGeometry relative="1" as="geometry" />
        </mxCell>
        <mxCell id="RBBDxC4-JnGGqZw2nR3C-41" value="isDeleted" style="ellipse;whiteSpace=wrap;html=1;align=center;" vertex="1" parent="1">
          <mxGeometry y="1440" width="120" height="40" as="geometry" />
        </mxCell>
        <mxCell id="RBBDxC4-JnGGqZw2nR3C-86" style="edgeStyle=orthogonalEdgeStyle;rounded=0;orthogonalLoop=1;jettySize=auto;html=1;exitX=0.5;exitY=0;exitDx=0;exitDy=0;entryX=0.5;entryY=1;entryDx=0;entryDy=0;endArrow=none;endFill=0;" edge="1" parent="1" source="RBBDxC4-JnGGqZw2nR3C-45" target="RBBDxC4-JnGGqZw2nR3C-60">
          <mxGeometry relative="1" as="geometry" />
        </mxCell>
        <mxCell id="RBBDxC4-JnGGqZw2nR3C-45" value="Slot" style="rounded=0;whiteSpace=wrap;html=1;" vertex="1" parent="1">
          <mxGeometry x="720" y="1360" width="120" height="40" as="geometry" />
        </mxCell>
        <mxCell id="RBBDxC4-JnGGqZw2nR3C-49" style="edgeStyle=orthogonalEdgeStyle;rounded=0;orthogonalLoop=1;jettySize=auto;html=1;exitX=0;exitY=0.5;exitDx=0;exitDy=0;entryX=1;entryY=0.5;entryDx=0;entryDy=0;endArrow=none;endFill=0;" edge="1" parent="1" source="RBBDxC4-JnGGqZw2nR3C-46" target="RBBDxC4-JnGGqZw2nR3C-45">
          <mxGeometry relative="1" as="geometry" />
        </mxCell>
        <mxCell id="RBBDxC4-JnGGqZw2nR3C-46" value="idSlot" style="ellipse;whiteSpace=wrap;html=1;align=center;fontStyle=4;" vertex="1" parent="1">
          <mxGeometry x="1080" y="1280" width="120" height="40" as="geometry" />
        </mxCell>
        <mxCell id="RBBDxC4-JnGGqZw2nR3C-50" style="edgeStyle=orthogonalEdgeStyle;rounded=0;orthogonalLoop=1;jettySize=auto;html=1;exitX=0;exitY=0.5;exitDx=0;exitDy=0;entryX=1;entryY=0.5;entryDx=0;entryDy=0;endArrow=none;endFill=0;" edge="1" parent="1" source="RBBDxC4-JnGGqZw2nR3C-47" target="RBBDxC4-JnGGqZw2nR3C-45">
          <mxGeometry relative="1" as="geometry" />
        </mxCell>
        <mxCell id="RBBDxC4-JnGGqZw2nR3C-47" value="name" style="ellipse;whiteSpace=wrap;html=1;align=center;" vertex="1" parent="1">
          <mxGeometry x="1080" y="1360" width="120" height="40" as="geometry" />
        </mxCell>
        <mxCell id="RBBDxC4-JnGGqZw2nR3C-51" style="edgeStyle=orthogonalEdgeStyle;rounded=0;orthogonalLoop=1;jettySize=auto;html=1;exitX=0;exitY=0.5;exitDx=0;exitDy=0;entryX=1;entryY=0.5;entryDx=0;entryDy=0;endArrow=none;endFill=0;" edge="1" parent="1" source="RBBDxC4-JnGGqZw2nR3C-48" target="RBBDxC4-JnGGqZw2nR3C-45">
          <mxGeometry relative="1" as="geometry" />
        </mxCell>
        <mxCell id="RBBDxC4-JnGGqZw2nR3C-48" value="isDeleted" style="ellipse;whiteSpace=wrap;html=1;align=center;" vertex="1" parent="1">
          <mxGeometry x="1080" y="1440" width="120" height="40" as="geometry" />
        </mxCell>
        <mxCell id="RBBDxC4-JnGGqZw2nR3C-85" style="edgeStyle=orthogonalEdgeStyle;rounded=0;orthogonalLoop=1;jettySize=auto;html=1;exitX=1;exitY=0.5;exitDx=0;exitDy=0;entryX=0;entryY=0.5;entryDx=0;entryDy=0;endArrow=none;endFill=0;" edge="1" parent="1" source="RBBDxC4-JnGGqZw2nR3C-52" target="RBBDxC4-JnGGqZw2nR3C-45">
          <mxGeometry relative="1" as="geometry">
            <Array as="points">
              <mxPoint x="560" y="1060" />
              <mxPoint x="560" y="1380" />
            </Array>
          </mxGeometry>
        </mxCell>
        <mxCell id="RBBDxC4-JnGGqZw2nR3C-87" style="edgeStyle=orthogonalEdgeStyle;rounded=0;orthogonalLoop=1;jettySize=auto;html=1;exitX=0.5;exitY=1;exitDx=0;exitDy=0;entryX=0.5;entryY=0;entryDx=0;entryDy=0;endArrow=none;endFill=0;" edge="1" parent="1" source="RBBDxC4-JnGGqZw2nR3C-52" target="RBBDxC4-JnGGqZw2nR3C-38">
          <mxGeometry relative="1" as="geometry" />
        </mxCell>
        <mxCell id="RBBDxC4-JnGGqZw2nR3C-52" value="CharacterStat" style="rounded=0;whiteSpace=wrap;html=1;" vertex="1" parent="1">
          <mxGeometry x="360" y="1040" width="120" height="40" as="geometry" />
        </mxCell>
        <mxCell id="RBBDxC4-JnGGqZw2nR3C-57" style="edgeStyle=orthogonalEdgeStyle;rounded=0;orthogonalLoop=1;jettySize=auto;html=1;exitX=1;exitY=0.5;exitDx=0;exitDy=0;entryX=0;entryY=0.5;entryDx=0;entryDy=0;endArrow=none;endFill=0;" edge="1" parent="1" source="RBBDxC4-JnGGqZw2nR3C-54" target="RBBDxC4-JnGGqZw2nR3C-52">
          <mxGeometry relative="1" as="geometry" />
        </mxCell>
        <mxCell id="RBBDxC4-JnGGqZw2nR3C-54" value="&lt;span style=&quot;border-bottom: 1px dotted&quot;&gt;idCharacter&lt;br&gt;&lt;/span&gt;" style="ellipse;whiteSpace=wrap;html=1;align=center;" vertex="1" parent="1">
          <mxGeometry y="960" width="120" height="40" as="geometry" />
        </mxCell>
        <mxCell id="RBBDxC4-JnGGqZw2nR3C-58" style="edgeStyle=orthogonalEdgeStyle;rounded=0;orthogonalLoop=1;jettySize=auto;html=1;exitX=1;exitY=0.5;exitDx=0;exitDy=0;entryX=0;entryY=0.5;entryDx=0;entryDy=0;endArrow=none;endFill=0;" edge="1" parent="1" source="RBBDxC4-JnGGqZw2nR3C-55" target="RBBDxC4-JnGGqZw2nR3C-52">
          <mxGeometry relative="1" as="geometry" />
        </mxCell>
        <mxCell id="RBBDxC4-JnGGqZw2nR3C-55" value="&lt;span style=&quot;border-bottom: 1px dotted&quot;&gt;idSlot&lt;br&gt;&lt;/span&gt;" style="ellipse;whiteSpace=wrap;html=1;align=center;" vertex="1" parent="1">
          <mxGeometry y="1040" width="120" height="40" as="geometry" />
        </mxCell>
        <mxCell id="RBBDxC4-JnGGqZw2nR3C-59" style="edgeStyle=orthogonalEdgeStyle;rounded=0;orthogonalLoop=1;jettySize=auto;html=1;exitX=1;exitY=0.5;exitDx=0;exitDy=0;entryX=0;entryY=0.5;entryDx=0;entryDy=0;endArrow=none;endFill=0;" edge="1" parent="1" source="RBBDxC4-JnGGqZw2nR3C-76" target="RBBDxC4-JnGGqZw2nR3C-52">
          <mxGeometry relative="1" as="geometry">
            <mxPoint x="240" y="1140" as="sourcePoint" />
          </mxGeometry>
        </mxCell>
        <mxCell id="RBBDxC4-JnGGqZw2nR3C-60" value="CharacterStat" style="rounded=0;whiteSpace=wrap;html=1;" vertex="1" parent="1">
          <mxGeometry x="720" y="1040" width="120" height="40" as="geometry" />
        </mxCell>
        <mxCell id="RBBDxC4-JnGGqZw2nR3C-71" style="edgeStyle=orthogonalEdgeStyle;rounded=0;orthogonalLoop=1;jettySize=auto;html=1;exitX=0;exitY=0.5;exitDx=0;exitDy=0;entryX=1;entryY=0.5;entryDx=0;entryDy=0;endArrow=none;endFill=0;" edge="1" parent="1" source="RBBDxC4-JnGGqZw2nR3C-61" target="RBBDxC4-JnGGqZw2nR3C-60">
          <mxGeometry relative="1" as="geometry" />
        </mxCell>
        <mxCell id="RBBDxC4-JnGGqZw2nR3C-61" value="&lt;span style=&quot;border-bottom: 1px dotted&quot;&gt;idCharacter&lt;br&gt;&lt;/span&gt;" style="ellipse;whiteSpace=wrap;html=1;align=center;" vertex="1" parent="1">
          <mxGeometry x="1080" y="960" width="120" height="40" as="geometry" />
        </mxCell>
        <mxCell id="RBBDxC4-JnGGqZw2nR3C-72" style="edgeStyle=orthogonalEdgeStyle;rounded=0;orthogonalLoop=1;jettySize=auto;html=1;exitX=0;exitY=0.5;exitDx=0;exitDy=0;entryX=1;entryY=0.5;entryDx=0;entryDy=0;endArrow=none;endFill=0;" edge="1" parent="1" source="RBBDxC4-JnGGqZw2nR3C-62" target="RBBDxC4-JnGGqZw2nR3C-60">
          <mxGeometry relative="1" as="geometry" />
        </mxCell>
        <mxCell id="RBBDxC4-JnGGqZw2nR3C-62" value="&lt;span style=&quot;border-bottom: 1px dotted&quot;&gt;idSlot&lt;br&gt;&lt;/span&gt;" style="ellipse;whiteSpace=wrap;html=1;align=center;" vertex="1" parent="1">
          <mxGeometry x="1080" y="1040" width="120" height="40" as="geometry" />
        </mxCell>
        <mxCell id="RBBDxC4-JnGGqZw2nR3C-73" style="edgeStyle=orthogonalEdgeStyle;rounded=0;orthogonalLoop=1;jettySize=auto;html=1;exitX=0;exitY=0.5;exitDx=0;exitDy=0;entryX=1;entryY=0.5;entryDx=0;entryDy=0;endArrow=none;endFill=0;" edge="1" parent="1" source="RBBDxC4-JnGGqZw2nR3C-63" target="RBBDxC4-JnGGqZw2nR3C-60">
          <mxGeometry relative="1" as="geometry" />
        </mxCell>
        <mxCell id="RBBDxC4-JnGGqZw2nR3C-63" value="&lt;span style=&quot;border-bottom: 1px dotted&quot;&gt;idItem&lt;br&gt;&lt;/span&gt;" style="ellipse;whiteSpace=wrap;html=1;align=center;" vertex="1" parent="1">
          <mxGeometry x="1080" y="1120" width="120" height="40" as="geometry" />
        </mxCell>
        <mxCell id="RBBDxC4-JnGGqZw2nR3C-89" style="edgeStyle=orthogonalEdgeStyle;rounded=0;orthogonalLoop=1;jettySize=auto;html=1;exitX=0.5;exitY=1;exitDx=0;exitDy=0;entryX=0.5;entryY=0;entryDx=0;entryDy=0;endArrow=none;endFill=0;" edge="1" parent="1" source="RBBDxC4-JnGGqZw2nR3C-64" target="RBBDxC4-JnGGqZw2nR3C-60">
          <mxGeometry relative="1" as="geometry" />
        </mxCell>
        <mxCell id="RBBDxC4-JnGGqZw2nR3C-64" value="Item" style="rounded=0;whiteSpace=wrap;html=1;" vertex="1" parent="1">
          <mxGeometry x="720" y="720" width="120" height="40" as="geometry" />
        </mxCell>
        <mxCell id="RBBDxC4-JnGGqZw2nR3C-68" style="edgeStyle=orthogonalEdgeStyle;rounded=0;orthogonalLoop=1;jettySize=auto;html=1;exitX=0;exitY=0.5;exitDx=0;exitDy=0;entryX=1;entryY=0.5;entryDx=0;entryDy=0;endArrow=none;endFill=0;" edge="1" parent="1" source="RBBDxC4-JnGGqZw2nR3C-65" target="RBBDxC4-JnGGqZw2nR3C-64">
          <mxGeometry relative="1" as="geometry" />
        </mxCell>
        <mxCell id="RBBDxC4-JnGGqZw2nR3C-65" value="idItem" style="ellipse;whiteSpace=wrap;html=1;align=center;fontStyle=4;" vertex="1" parent="1">
          <mxGeometry x="1080" y="640" width="120" height="40" as="geometry" />
        </mxCell>
        <mxCell id="RBBDxC4-JnGGqZw2nR3C-69" style="edgeStyle=orthogonalEdgeStyle;rounded=0;orthogonalLoop=1;jettySize=auto;html=1;exitX=0;exitY=0.5;exitDx=0;exitDy=0;entryX=1;entryY=0.5;entryDx=0;entryDy=0;endArrow=none;endFill=0;" edge="1" parent="1" source="RBBDxC4-JnGGqZw2nR3C-66" target="RBBDxC4-JnGGqZw2nR3C-64">
          <mxGeometry relative="1" as="geometry" />
        </mxCell>
        <mxCell id="RBBDxC4-JnGGqZw2nR3C-66" value="name" style="ellipse;whiteSpace=wrap;html=1;align=center;" vertex="1" parent="1">
          <mxGeometry x="1080" y="720" width="120" height="40" as="geometry" />
        </mxCell>
        <mxCell id="RBBDxC4-JnGGqZw2nR3C-70" style="edgeStyle=orthogonalEdgeStyle;rounded=0;orthogonalLoop=1;jettySize=auto;html=1;exitX=0;exitY=0.5;exitDx=0;exitDy=0;entryX=1;entryY=0.5;entryDx=0;entryDy=0;endArrow=none;endFill=0;" edge="1" parent="1" source="RBBDxC4-JnGGqZw2nR3C-67" target="RBBDxC4-JnGGqZw2nR3C-64">
          <mxGeometry relative="1" as="geometry" />
        </mxCell>
        <mxCell id="RBBDxC4-JnGGqZw2nR3C-67" value="isDeleted" style="ellipse;whiteSpace=wrap;html=1;align=center;" vertex="1" parent="1">
          <mxGeometry x="1080" y="800" width="120" height="40" as="geometry" />
        </mxCell>
        <mxCell id="RBBDxC4-JnGGqZw2nR3C-83" style="edgeStyle=orthogonalEdgeStyle;rounded=0;orthogonalLoop=1;jettySize=auto;html=1;exitX=0.5;exitY=1;exitDx=0;exitDy=0;entryX=0.5;entryY=0;entryDx=0;entryDy=0;endArrow=none;endFill=0;" edge="1" parent="1" source="RBBDxC4-JnGGqZw2nR3C-75" target="RBBDxC4-JnGGqZw2nR3C-64">
          <mxGeometry relative="1" as="geometry" />
        </mxCell>
        <mxCell id="RBBDxC4-JnGGqZw2nR3C-75" value="ItemsSet" style="rounded=0;whiteSpace=wrap;html=1;" vertex="1" parent="1">
          <mxGeometry x="720" y="400" width="120" height="40" as="geometry" />
        </mxCell>
        <mxCell id="RBBDxC4-JnGGqZw2nR3C-76" value="&lt;span style=&quot;border-bottom: 1px dotted&quot;&gt;idStat&lt;br&gt;&lt;/span&gt;" style="ellipse;whiteSpace=wrap;html=1;align=center;" vertex="1" parent="1">
          <mxGeometry y="1120" width="120" height="40" as="geometry" />
        </mxCell>
        <mxCell id="RBBDxC4-JnGGqZw2nR3C-80" style="edgeStyle=orthogonalEdgeStyle;rounded=0;orthogonalLoop=1;jettySize=auto;html=1;exitX=0;exitY=0.5;exitDx=0;exitDy=0;entryX=1;entryY=0.5;entryDx=0;entryDy=0;endArrow=none;endFill=0;" edge="1" parent="1" source="RBBDxC4-JnGGqZw2nR3C-77" target="RBBDxC4-JnGGqZw2nR3C-75">
          <mxGeometry relative="1" as="geometry" />
        </mxCell>
        <mxCell id="RBBDxC4-JnGGqZw2nR3C-77" value="&lt;span style=&quot;border-bottom: 1px dotted&quot;&gt;idItem&lt;br&gt;&lt;/span&gt;" style="ellipse;whiteSpace=wrap;html=1;align=center;" vertex="1" parent="1">
          <mxGeometry x="1080" y="320" width="120" height="40" as="geometry" />
        </mxCell>
        <mxCell id="RBBDxC4-JnGGqZw2nR3C-81" style="edgeStyle=orthogonalEdgeStyle;rounded=0;orthogonalLoop=1;jettySize=auto;html=1;exitX=0;exitY=0.5;exitDx=0;exitDy=0;entryX=1;entryY=0.5;entryDx=0;entryDy=0;endArrow=none;endFill=0;" edge="1" parent="1" source="RBBDxC4-JnGGqZw2nR3C-78" target="RBBDxC4-JnGGqZw2nR3C-75">
          <mxGeometry relative="1" as="geometry" />
        </mxCell>
        <mxCell id="RBBDxC4-JnGGqZw2nR3C-78" value="quantity" style="ellipse;whiteSpace=wrap;html=1;align=center;" vertex="1" parent="1">
          <mxGeometry x="1080" y="400" width="120" height="40" as="geometry" />
        </mxCell>
        <mxCell id="RBBDxC4-JnGGqZw2nR3C-82" style="edgeStyle=orthogonalEdgeStyle;rounded=0;orthogonalLoop=1;jettySize=auto;html=1;exitX=0;exitY=0.5;exitDx=0;exitDy=0;entryX=1;entryY=0.5;entryDx=0;entryDy=0;endArrow=none;endFill=0;" edge="1" parent="1" source="RBBDxC4-JnGGqZw2nR3C-79" target="RBBDxC4-JnGGqZw2nR3C-75">
          <mxGeometry relative="1" as="geometry" />
        </mxCell>
        <mxCell id="RBBDxC4-JnGGqZw2nR3C-79" value="description" style="ellipse;whiteSpace=wrap;html=1;align=center;" vertex="1" parent="1">
          <mxGeometry x="1080" y="480" width="120" height="40" as="geometry" />
        </mxCell>
      </root>
    </mxGraphModel>
  </diagram>
</mxfile>
